<mxGraphModel dx="1240" dy="851" grid="1" gridSize="10" guides="1" tooltips="1" connect="1" arrows="1" fold="1" page="1" pageScale="1" pageWidth="1654" pageHeight="1169" math="0" shadow="0"><root><mxCell id="0"/><mxCell id="1" parent="0"/><mxCell id="title" value="Схема интеграции приложений банка &quot;Стандарт&quot;" style="text;html=1;strokeColor=none;fillColor=none;align=center;verticalAlign=middle;whiteSpace=wrap;rounded=0;fontSize=16;fontStyle=1;fontColor=#FFFFFF;" parent="1" vertex="1"><mxGeometry x="650" y="40" width="400" height="30" as="geometry"/></mxCell><mxCell id="clients" value="Клиенты банка" style="shape=umlActor;verticalLabelPosition=bottom;verticalAlign=top;html=1;outlineConnect=0;fillColor=#dae8fc;strokeColor=#6c8ebf;" parent="1" vertex="1"><mxGeometry x="320" y="190" width="30" height="60" as="geometry"/></mxCell><mxCell id="branch_staff" value="Сотрудники отделений&lt;br&gt;(500 чел.)" style="shape=umlActor;verticalLabelPosition=bottom;verticalAlign=top;html=1;outlineConnect=0;fillColor=#d5e8d4;strokeColor=#82b366;" parent="1" vertex="1"><mxGeometry x="320" y="320" width="30" height="60" as="geometry"/></mxCell><mxCell id="call_center" value="Кол-центр&lt;br&gt;(200 чел.)" style="shape=umlActor;verticalLabelPosition=bottom;verticalAlign=top;html=1;outlineConnect=0;fillColor=#d5e8d4;strokeColor=#82b366;" parent="1" vertex="1"><mxGeometry x="320" y="450" width="30" height="60" as="geometry"/></mxCell><mxCell id="back_office_dep" value="Бэк-офис&lt;br&gt;депозитов&lt;br&gt;(50 чел.)" style="shape=umlActor;verticalLabelPosition=bottom;verticalAlign=top;html=1;outlineConnect=0;fillColor=#d5e8d4;strokeColor=#82b366;" parent="1" vertex="1"><mxGeometry x="320" y="580" width="30" height="60" as="geometry"/></mxCell><mxCell id="back_office_cred" value="Бэк-офис&lt;br&gt;кредитов&lt;br&gt;(50 чел.)" style="shape=umlActor;verticalLabelPosition=bottom;verticalAlign=top;html=1;outlineConnect=0;fillColor=#d5e8d4;strokeColor=#82b366;" parent="1" vertex="1"><mxGeometry x="320" y="710" width="30" height="60" as="geometry"/></mxCell><mxCell id="website" value="Сайт&lt;br&gt;PHP + React.js)" style="rounded=1;whiteSpace=wrap;html=1;fillColor=#fff2cc;strokeColor=#d6b656;" parent="1" vertex="1"><mxGeometry x="440" y="150" width="120" height="60" as="geometry"/></mxCell><mxCell id="internet_bank" value="Интернет-банк&lt;br&gt;(ASP.NET MVC 4.5&lt;br&gt;.NET Framework 4.5)" style="rounded=1;whiteSpace=wrap;html=1;fillColor=#fff2cc;strokeColor=#d6b656;" parent="1" vertex="1"><mxGeometry x="440" y="240" width="120" height="80" as="geometry"/></mxCell><mxCell id="abs" value="АБС&lt;br&gt;(Delphi клиент + Oracle)&lt;br&gt;Процедуры PL-SQL" style="rounded=1;whiteSpace=wrap;html=1;fillColor=#dae8fc;strokeColor=#6c8ebf;" parent="1" vertex="1"><mxGeometry x="740" y="390" width="150" height="80" as="geometry"/></mxCell><mxCell id="call_center_system" value="Система кол-центра&lt;br&gt;(React.js + Java Spring Boot&lt;br&gt;PostgreSQL)" style="rounded=1;whiteSpace=wrap;html=1;fillColor=#dae8fc;strokeColor=#6c8ebf;" parent="1" vertex="1"><mxGeometry x="440" y="450" width="150" height="80" as="geometry"/></mxCell><mxCell id="credit_conveyor" value="Кредитный конвейер&lt;br&gt;(Camunda BPM + Oracle)" style="rounded=1;whiteSpace=wrap;html=1;fillColor=#dae8fc;strokeColor=#6c8ebf;" parent="1" vertex="1"><mxGeometry x="740" y="660" width="150" height="60" as="geometry"/></mxCell><mxCell id="scoring_system" value="Система кредитного&lt;br&gt;скоринга&lt;br&gt;(Python Flask + PostgreSQL)" style="rounded=1;whiteSpace=wrap;html=1;fillColor=#dae8fc;strokeColor=#6c8ebf;" parent="1" vertex="1"><mxGeometry x="990" y="650" width="150" height="80" as="geometry"/></mxCell><mxCell id="sms_gateway" value="СМС-шлюз&lt;br&gt;телеком-оператора" style="rounded=1;whiteSpace=wrap;html=1;fillColor=#f8cecc;strokeColor=#b85450;" parent="1" vertex="1"><mxGeometry x="1240" y="440" width="120" height="60" as="geometry"/></mxCell><mxCell id="credit_bureau" value="Бюро кредитных&lt;br&gt;историй&lt;br&gt;(REST API)" style="rounded=1;whiteSpace=wrap;html=1;fillColor=#f8cecc;strokeColor=#b85450;" parent="1" vertex="1"><mxGeometry x="1240" y="660" width="120" height="60" as="geometry"/></mxCell><mxCell id="partner_call_center" value="Партнерский&lt;br&gt;кол-центр&lt;br&gt;(внешняя система)" style="rounded=1;whiteSpace=wrap;html=1;fillColor=#f8cecc;strokeColor=#b85450;" parent="1" vertex="1"><mxGeometry x="440" y="640" width="120" height="60" as="geometry"/></mxCell><mxCell id="excel_rates" value="Excel файлы&lt;br&gt;со ставками&lt;br&gt;(email ежедневно)" style="shape=note;whiteSpace=wrap;html=1;backgroundOutline=1;darkOpacity=0.05;fillColor=#ffe6cc;strokeColor=#d79b00;" parent="1" vertex="1"><mxGeometry x="900" y="530" width="140" height="60" as="geometry"/></mxCell><mxCell id="edge1" value="HTTPS" style="endArrow=classic;html=1;rounded=0;entryX=0;entryY=0.5;entryDx=0;entryDy=0;exitX=1;exitY=0.3;exitDx=0;exitDy=0;exitPerimeter=0;" parent="1" source="clients" target="website" edge="1"><mxGeometry width="50" height="50" relative="1" as="geometry"><mxPoint x="360" y="200" as="sourcePoint"/><mxPoint x="410" y="150" as="targetPoint"/></mxGeometry></mxCell><mxCell id="edge2" value="HTTPS" style="endArrow=classic;html=1;rounded=0;entryX=0;entryY=0.5;entryDx=0;entryDy=0;exitX=1;exitY=0.7;exitDx=0;exitDy=0;exitPerimeter=0;" parent="1" source="clients" target="internet_bank" edge="1"><mxGeometry width="50" height="50" relative="1" as="geometry"><mxPoint x="360" y="240" as="sourcePoint"/><mxPoint x="410" y="190" as="targetPoint"/></mxGeometry></mxCell><mxCell id="edge3" value="Десктоп клиент" style="endArrow=classic;html=1;rounded=0;entryX=0;entryY=0.5;entryDx=0;entryDy=0;exitX=1;exitY=0.5;exitDx=0;exitDy=0;exitPerimeter=0;" parent="1" source="branch_staff" target="abs" edge="1"><mxGeometry width="50" height="50" relative="1" as="geometry"><mxPoint x="360" y="350" as="sourcePoint"/><mxPoint x="410" y="300" as="targetPoint"/><Array as="points"><mxPoint x="640" y="350"/><mxPoint x="640" y="430"/></Array></mxGeometry></mxCell><mxCell id="edge4" value="Web интерфейс" style="endArrow=classic;html=1;rounded=0;entryX=0;entryY=0.5;entryDx=0;entryDy=0;exitX=1;exitY=0.5;exitDx=0;exitDy=0;exitPerimeter=0;" parent="1" source="call_center" target="call_center_system" edge="1"><mxGeometry width="50" height="50" relative="1" as="geometry"><mxPoint x="360" y="480" as="sourcePoint"/><mxPoint x="410" y="430" as="targetPoint"/></mxGeometry></mxCell><mxCell id="edge5" value="АБС + Excel" style="endArrow=classic;html=1;rounded=0;entryX=0;entryY=0.75;entryDx=0;entryDy=0;exitX=1;exitY=0.5;exitDx=0;exitDy=0;exitPerimeter=0;" parent="1" source="back_office_dep" target="abs" edge="1"><mxGeometry width="50" height="50" relative="1" as="geometry"><mxPoint x="360" y="610" as="sourcePoint"/><mxPoint x="410" y="560" as="targetPoint"/><Array as="points"><mxPoint x="640" y="610"/><mxPoint x="640" y="450"/></Array></mxGeometry></mxCell><mxCell id="edge6" value="Camunda" style="endArrow=classic;html=1;rounded=0;entryX=0;entryY=0.5;entryDx=0;entryDy=0;exitX=1;exitY=0.5;exitDx=0;exitDy=0;exitPerimeter=0;" parent="1" source="back_office_cred" target="credit_conveyor" edge="1"><mxGeometry width="50" height="50" relative="1" as="geometry"><mxPoint x="360" y="740" as="sourcePoint"/><mxPoint x="410" y="690" as="targetPoint"/><Array as="points"><mxPoint x="640" y="740"/><mxPoint x="640" y="690"/></Array></mxGeometry></mxCell><mxCell id="edge7" value="Прямая интеграция&lt;br&gt;с&amp;nbsp;MS SQL" style="endArrow=classic;html=1;rounded=0;entryX=0.25;entryY=0;entryDx=0;entryDy=0;exitX=1;exitY=0.5;exitDx=0;exitDy=0;" parent="1" source="internet_bank" target="abs" edge="1"><mxGeometry width="50" height="50" relative="1" as="geometry"><mxPoint x="570" y="280" as="sourcePoint"/><mxPoint x="620" y="230" as="targetPoint"/><Array as="points"><mxPoint x="778" y="280"/></Array><mxPoint as="offset"/></mxGeometry></mxCell><mxCell id="edge8" value="Интеграция" style="endArrow=classic;html=1;rounded=0;entryX=0;entryY=0.25;entryDx=0;entryDy=0;exitX=1;exitY=0.5;exitDx=0;exitDy=0;" parent="1" source="call_center_system" target="abs" edge="1"><mxGeometry width="50" height="50" relative="1" as="geometry"><mxPoint x="600" y="490" as="sourcePoint"/><mxPoint x="650" y="440" as="targetPoint"/><Array as="points"><mxPoint x="690" y="490"/><mxPoint x="690" y="410"/></Array></mxGeometry></mxCell><mxCell id="edge9" value="БД интеграция&lt;br&gt;1 раз в день" style="endArrow=classic;html=1;rounded=0;entryX=0.5;entryY=0;entryDx=0;entryDy=0;exitX=0.5;exitY=1;exitDx=0;exitDy=0;" parent="1" source="abs" target="credit_conveyor" edge="1"><mxGeometry x="0.3684" width="50" height="50" relative="1" as="geometry"><mxPoint x="815" y="480" as="sourcePoint"/><mxPoint x="865" y="430" as="targetPoint"/><mxPoint as="offset"/></mxGeometry></mxCell><mxCell id="edge10" value="REST API" style="endArrow=classic;html=1;rounded=0;entryX=0;entryY=0.5;entryDx=0;entryDy=0;exitX=1;exitY=0.5;exitDx=0;exitDy=0;" parent="1" source="credit_conveyor" target="scoring_system" edge="1"><mxGeometry width="50" height="50" relative="1" as="geometry"><mxPoint x="900" y="690" as="sourcePoint"/><mxPoint x="950" y="640" as="targetPoint"/></mxGeometry></mxCell><mxCell id="edge11" value="REST API" style="endArrow=classic;html=1;rounded=0;entryX=0;entryY=0.5;entryDx=0;entryDy=0;exitX=1;exitY=0.5;exitDx=0;exitDy=0;" parent="1" source="scoring_system" target="credit_bureau" edge="1"><mxGeometry width="50" height="50" relative="1" as="geometry"><mxPoint x="1150" y="700" as="sourcePoint"/><mxPoint x="1200" y="650" as="targetPoint"/></mxGeometry></mxCell><mxCell id="edge12" value="SMS API" style="endArrow=classic;html=1;rounded=0;entryX=0;entryY=0.5;entryDx=0;entryDy=0;exitX=1;exitY=0.5;exitDx=0;exitDy=0;" parent="1" source="abs" target="sms_gateway" edge="1"><mxGeometry width="50" height="50" relative="1" as="geometry"><mxPoint x="870" y="470" as="sourcePoint"/><mxPoint x="950" y="360" as="targetPoint"/></mxGeometry></mxCell><mxCell id="edge13" value="Готовые скрипты&lt;br&gt;(передача файлами)" style="endArrow=classic;html=1;rounded=0;entryX=0.5;entryY=0;entryDx=0;entryDy=0;exitX=0.5;exitY=1;exitDx=0;exitDy=0;" parent="1" source="call_center_system" target="partner_call_center" edge="1"><mxGeometry width="50" height="50" relative="1" as="geometry"><mxPoint x="515" y="540" as="sourcePoint"/><mxPoint x="565" y="490" as="targetPoint"/></mxGeometry></mxCell><mxCell id="edge14" value="Email ежедневно" style="endArrow=classic;html=1;rounded=0;entryX=0.5;entryY=1;entryDx=0;entryDy=0;exitX=0;exitY=0.5;exitDx=0;exitDy=0;exitPerimeter=0;" parent="1" source="excel_rates" target="abs" edge="1"><mxGeometry width="50" height="50" relative="1" as="geometry"><mxPoint x="820" y="560" as="sourcePoint"/><mxPoint x="890" y="460" as="targetPoint"/><Array as="points"/></mxGeometry></mxCell><mxCell id="process_deposit" value="Процесс открытия депозита:&lt;br&gt;1. Клиент в отделении&lt;br&gt;2. Расчет ставок в Excel&lt;br&gt;3. Согласование с бэк-офисом&lt;br&gt;4. Создание в АБС&lt;br&gt;5. СМС уведомление" style="rounded=1;whiteSpace=wrap;html=1;fillColor=#f5f5f5;strokeColor=#666666;align=left;" parent="1" vertex="1"><mxGeometry x="980" y="170" width="200" height="100" as="geometry"/></mxCell><mxCell id="process_credit" value="Процесс выдачи кредита:&lt;br&gt;1. Заявка в отделении → АБС&lt;br&gt;2. Передача в Кредитный конвейер&lt;br&gt;3. Скоринг через API&lt;br&gt;4. Данные из БКИ&lt;br&gt;5. Решение сотрудника&lt;br&gt;6. Зачисление через АБС" style="rounded=1;whiteSpace=wrap;html=1;fillColor=#f5f5f5;strokeColor=#666666;align=left;" parent="1" vertex="1"><mxGeometry x="980" y="280" width="200" height="120" as="geometry"/></mxCell><mxCell id="legend_title" value="Легенда:" style="text;html=1;strokeColor=none;fillColor=none;align=left;verticalAlign=middle;whiteSpace=wrap;rounded=0;fontSize=12;fontStyle=1;" parent="1" vertex="1"><mxGeometry x="1100" y="510" width="80" height="20" as="geometry"/></mxCell><mxCell id="legend_users" value="Пользователи" style="shape=umlActor;verticalLabelPosition=bottom;verticalAlign=top;html=1;outlineConnect=0;fillColor=#d5e8d4;strokeColor=#82b366;" parent="1" vertex="1"><mxGeometry x="1110" y="540" width="20" height="40" as="geometry"/></mxCell><mxCell id="legend_frontend" value="Фронтенд" style="rounded=1;whiteSpace=wrap;html=1;fillColor=#fff2cc;strokeColor=#d6b656;" parent="1" vertex="1"><mxGeometry x="1160" y="540" width="60" height="25" as="geometry"/></mxCell><mxCell id="legend_internal" value="Внутренние системы" style="rounded=1;whiteSpace=wrap;html=1;fillColor=#dae8fc;strokeColor=#6c8ebf;" parent="1" vertex="1"><mxGeometry x="1240" y="540" width="110" height="25" as="geometry"/></mxCell><mxCell id="legend_external" value="Внешние системы" style="rounded=1;whiteSpace=wrap;html=1;fillColor=#f8cecc;strokeColor=#b85450;" parent="1" vertex="1"><mxGeometry x="1160" y="580" width="60" height="25" as="geometry"/></mxCell><mxCell id="legend_data" value="Данные/файлы" style="shape=note;whiteSpace=wrap;html=1;backgroundOutline=1;darkOpacity=0.05;fillColor=#ffe6cc;strokeColor=#d79b00;" parent="1" vertex="1"><mxGeometry x="1240" y="580" width="120" height="25" as="geometry"/></mxCell><mxCell id="2" value="Интернет-банк (проведение платежей и открытие текущих счетов - деб. карт)" style="rounded=1;whiteSpace=wrap;html=1;fillColor=#f5f5f5;strokeColor=#666666;align=left;" parent="1" vertex="1"><mxGeometry x="1090" y="80" width="110" height="80" as="geometry"/></mxCell><mxCell id="3" value="Сайт &lt;br&gt;(маркетинговая информация)" style="rounded=1;whiteSpace=wrap;html=1;fillColor=#f5f5f5;strokeColor=#666666;align=left;" parent="1" vertex="1"><mxGeometry x="970" y="80" width="110" height="80" as="geometry"/></mxCell><mxCell id="10" value="Поддержка&lt;br&gt;(5 чел.)" style="shape=umlActor;verticalLabelPosition=bottom;verticalAlign=top;html=1;outlineConnect=0;fillColor=#d5e8d4;strokeColor=#82b366;" parent="1" vertex="1"><mxGeometry x="490" y="380" width="15" height="30" as="geometry"/></mxCell><mxCell id="12" value="(100 чел.)" style="shape=umlActor;verticalLabelPosition=bottom;verticalAlign=top;html=1;outlineConnect=0;fillColor=#d5e8d4;strokeColor=#82b366;" parent="1" vertex="1"><mxGeometry x="580" y="640" width="15" height="30" as="geometry"/></mxCell></root></mxGraphModel>